PathFileType	4	(X/Y/Z)	31_2_rein_41_p0_0-236.trc
DataRate	CameraRate	NumFrames	NumMarkers	Units	OrigDataRate	OrigDataStartFrame	OrigNumFrames
47.0	47.0	4	27	m	47.0	0	237
Frame#	Time	RHip			RKnee			RAnkle			RBigToe			RSmallToe			RHeel			LHip			LKnee			LAnkle			LBigToe			LSmallToe			LHeel			Neck			Head			Nose			RShoulder			RElbow			RWrist			RThumb			RIndex			RPinky			LShoulder			LElbow			LWrist			LThumb			LIndex			LPinky			
		X1	Y1	Z1	X2	Y2	Z2	X3	Y3	Z3	X4	Y4	Z4	X5	Y5	Z5	X6	Y6	Z6	X7	Y7	Z7	X8	Y8	Z8	X9	Y9	Z9	X10	Y10	Z10	X11	Y11	Z11	X12	Y12	Z12	X13	Y13	Z13	X14	Y14	Z14	X15	Y15	Z15	X16	Y16	Z16	X17	Y17	Z17	X18	Y18	Z18	X19	Y19	Z19	X20	Y20	Z20	X21	Y21	Z21	X22	Y22	Z22	X23	Y23	Z23	X24	Y24	Z24	X25	Y25	Z25	X26	Y26	Z26	X27	Y27	Z27	
0	0.0	0.1960539142478625	0.5921959165995819	0.1920132305854019	0.1748755247688046	0.8079558925083404	0.5453490231707302	0.11743392353024304	1.0521926047476122	0.9252818747880353	0.06070321172941204	0.8064679163251779	1.010166562369766	0.13307224831023545	0.8744371112787664	1.009991736136296	0.0967116276080218	1.1659088492556198	0.9612039487255409	-0.03422437703702753	0.6126658443031536	0.1782453295036468	-0.05497639945701482	0.8094990762410319	0.5270797446883128	-0.08248412539314551	1.0253257650316734	0.9030807912072487	-0.07453223209962417	0.844853711205791	0.9864629135426707	-0.12341689883903476	0.8721631019396653	0.973899529668353	-0.05988080485042598	1.1023653210630944	0.9380133369490189	0.12273213627899447	0.277821453651509	-0.3877909514093354	0.09157549647462923	0.08206071932070137	-0.6041020186071755	0.09031354931668749	0.09712508161346235	-0.4559803590461295	0.27248153190261637	0.3144579036755826	-0.29543216421250673	0.3257352441720406	0.4257077489021808	-0.02564204255687522	0.12227482267144509	0.3246264783823484	0.16993381235953903	0.0647901193080404	0.32508992683853083	0.21742925181741274	0.05145370102173816	0.41448799330022257	0.25070498901949145	0.04289728212171217	0.37224854064650487	0.23976239397150323	-0.038847731525286484	0.3406774834803392	-0.3166431065597012	-0.07277598511149991	0.4103467145527387	-0.037010777903068434	0.051632908358751624	0.3975189450525223	0.1808650576980501	0.12852278747119214	0.38303112683108803	0.24543657071605934	0.14512129090777026	0.43777855258428955	0.28393818747897187	0.11150433461062499	0.38968057777300524	0.30813077357989177
1	0.02127659574468085	0.1961042545370701	0.5919069211404264	0.19196761043334493	0.17562921317900548	0.8110740079445554	0.5491909702944006	0.11868551386878562	1.0496788170223688	0.9213060855710491	0.06205540827605647	0.803203970050936	1.005664229937488	0.1328752799350944	0.874161197790285	1.0098861894440132	0.10186388229870624	1.1433599843492388	0.9552400245292115	-0.029776263389788508	0.6250417541773542	0.17313307667369535	-0.056044159584028384	0.811353053477278	0.5308263445177844	-0.0810806339165593	1.0230512540847423	0.8985476561055392	-0.07144263369252825	0.8600944506842445	0.9885694981791165	-0.12485608964530943	0.904850553862843	0.9774138088548794	-0.06420627957695683	1.1227310566544082	0.9397907066788361	0.12312196649999094	0.2768474830446625	-0.39109577479340496	0.0951805515620204	0.09129636697410921	-0.6085737449260774	0.08754000548381514	0.10736164723714414	-0.460647854036157	0.2718063506818045	0.31381236496435183	-0.29556014626796095	0.32631632233668717	0.4246853229287477	-0.028889801603200628	0.1218576009583924	0.32231277062971114	0.1668540824177483	0.0574782861060546	0.3509303982128446	0.21369160387113953	0.05151646284283257	0.415304483321783	0.2508575328673581	0.03900411931163026	0.3620757329480241	0.24517141615389265	-0.038755195353437556	0.3408570667432789	-0.3167899253847082	-0.07239808775344556	0.40864247084817606	-0.04358018182309158	0.05194488335655829	0.400500784688766	0.18362307952849968	0.13232841294004546	0.39589374066008676	0.2491014338542058	0.14049610021240727	0.43882865812666766	0.2872455222295482	0.10782183717920836	0.4023134652042778	0.307255242109714
2	0.0425531914893617	0.19629508270322377	0.5921064405594604	0.1918720444117173	0.1750598125795722	0.8077441478695179	0.5452225095548103	0.12317987878757689	1.066588055502706	0.9230483621079648	0.06050237436673983	0.8050480564556911	1.0099103019818447	0.13288769729569458	0.8741015386669302	1.0099379677088645	0.10058552327296814	1.1464327188077774	0.9597895231275612	-0.02967068324870857	0.6251757892749769	0.1730477337709485	-0.06018354222965772	0.8103017297700934	0.5305197625427583	-0.08107082391171996	1.0231387711565492	0.8984567915477176	-0.07138220916336663	0.860451324509661	0.9883574810559308	-0.124755354108504	0.904617814805043	0.9771235953876394	-0.06418091545757063	1.1229027349110563	0.9396806388034971	0.12315227826921124	0.27677876882597785	-0.3911520511651896	0.0952766066525785	0.0913963676324402	-0.6086110506379908	0.0875378127645206	0.10732574102164752	-0.4606794278563859	0.27179789249290603	0.31389413032175545	-0.2955084921796671	0.32570965110711736	0.4268392965952202	-0.021829704131628137	0.12106375380786687	0.3235793616462199	0.17023524592538153	0.053520871709417855	0.3660779484155673	0.2173753492466736	0.05155002600552606	0.4155883985479973	0.2510927041470375	0.03842916610546297	0.36306950618946465	0.248113535647406	-0.03869756297307428	0.34107259473332835	-0.3168552987164337	-0.06863243015357988	0.4206812764819892	-0.046296150435184154	0.051935083295941674	0.4006506393626553	0.1834639006304178	0.12781531410927285	0.3953484303131787	0.25333344807049113	0.140748281816724	0.4407978393879092	0.290423089298258	0.10528568638490886	0.4152400461208041	0.3019703804451332
3	0.06382978723404255	0.19637226085803536	0.5918588369077296	0.19188034713189206	0.17472424640588208	0.8130863096887387	0.5530088670376582	0.12316356665851859	1.0666385473178903	0.9230231836465881	0.06018298486647776	0.8043626750318673	1.0100000660051642	0.13259796235212942	0.8735733066166868	1.0100722060767346	0.10054962310004041	1.1464679760675338	0.9598335440332797	-0.029800403368515062	0.6257868318502428	0.17696568236201501	-0.05601477716679263	0.8111911005790358	0.5306936484407295	-0.08108265614474844	1.0230889835833228	0.8984497128018281	-0.071354543951943	0.860471978645965	0.9882620890255034	-0.12466350058146433	0.9044244476010145	0.97700222291318	-0.06488232231435619	1.1191222963922896	0.9359321411403045	0.12318261114421536	0.27682834722003286	-0.3911731121534198	0.10199860033898775	0.08231233852817038	-0.6038318956661533	0.08756748671297195	0.10740511139279783	-0.4607071668938959	0.27188528872686196	0.3138926255667453	-0.29556002989671304	0.32573893002963655	0.42694452420645873	-0.02185841175609978	0.12090110963327354	0.32370514039419984	0.17023359212940706	0.0625275243456309	0.3410107806280077	0.22121839988327194	0.05499356965036497	0.4182755510175296	0.2539031146735424	0.035105007551814456	0.37582028682817353	0.24643086671296255	-0.03875502618417206	0.3409329449129099	-0.31684823046802135	-0.07235515063970072	0.40879070953444646	-0.04365000359882372	0.047501794732824225	0.3963541549180485	0.18059901512624876	0.12778185419227372	0.39461506958596404	0.25341763914975124	0.14021846421424886	0.4376618296216027	0.2872937460150466	0.10447468694024778	0.41566159467030117	0.3054882733916074
